<mxfile host="app.diagrams.net" modified="2024-03-17T19:02:47.036Z" agent="Mozilla/5.0 (Windows NT 10.0; Win64; x64) AppleWebKit/537.36 (KHTML, like Gecko) Chrome/122.0.0.0 Safari/537.36" etag="aSumwJUx81a3DKX61_8R" version="24.0.7" type="github">
  <diagram name="Trang-1" id="o9rq9zfs9sSGxVgcCEui">
    <mxGraphModel dx="1114" dy="600" grid="1" gridSize="10" guides="1" tooltips="1" connect="1" arrows="1" fold="1" page="1" pageScale="1" pageWidth="827" pageHeight="1169" math="0" shadow="0">
      <root>
        <mxCell id="0" />
        <mxCell id="1" parent="0" />
        <mxCell id="3QImM_NWvGT7LAKbkqIh-1" value="" style="sketch=0;outlineConnect=0;fontColor=#232F3E;gradientColor=none;fillColor=#232F3D;strokeColor=none;dashed=0;verticalLabelPosition=bottom;verticalAlign=top;align=center;html=1;fontSize=12;fontStyle=0;aspect=fixed;pointerEvents=1;shape=mxgraph.aws4.user;" vertex="1" parent="1">
          <mxGeometry x="26" y="250" width="78" height="78" as="geometry" />
        </mxCell>
        <mxCell id="3QImM_NWvGT7LAKbkqIh-7" value="&lt;h2 style=&quot;border-color: var(--border-color); color: rgb(51, 51, 51); font-family: &amp;quot;Times New Roman&amp;quot;; text-align: justify; line-height: 23.4px;&quot;&gt;&lt;span style=&quot;border-color: var(--border-color); font-size: 16px; background-color: initial;&quot;&gt;Trang chủ&lt;/span&gt;&lt;/h2&gt;" style="rounded=1;whiteSpace=wrap;html=1;fillColor=#f5f5f5;fontColor=#333333;strokeColor=#666666;" vertex="1" parent="1">
          <mxGeometry x="206" y="263.5" width="110" height="51" as="geometry" />
        </mxCell>
        <mxCell id="3QImM_NWvGT7LAKbkqIh-9" value="" style="endArrow=classic;html=1;rounded=0;" edge="1" parent="1">
          <mxGeometry width="50" height="50" relative="1" as="geometry">
            <mxPoint x="126" y="288.5" as="sourcePoint" />
            <mxPoint x="196" y="289" as="targetPoint" />
          </mxGeometry>
        </mxCell>
        <mxCell id="3QImM_NWvGT7LAKbkqIh-10" value="&lt;h2 style=&quot;border-color: var(--border-color); color: rgb(51, 51, 51); font-family: &amp;quot;Times New Roman&amp;quot;; text-align: justify; line-height: 23.4px;&quot;&gt;&lt;span style=&quot;border-color: var(--border-color); font-size: 16px; background-color: initial;&quot;&gt;Giới thiệu&lt;/span&gt;&lt;/h2&gt;" style="rounded=1;whiteSpace=wrap;html=1;fillColor=#f5f5f5;fontColor=#333333;strokeColor=#666666;" vertex="1" parent="1">
          <mxGeometry x="416" y="190" width="110" height="51" as="geometry" />
        </mxCell>
        <mxCell id="3QImM_NWvGT7LAKbkqIh-11" value="" style="endArrow=classic;html=1;rounded=0;entryX=-0.073;entryY=0.49;entryDx=0;entryDy=0;entryPerimeter=0;exitX=1;exitY=0.5;exitDx=0;exitDy=0;" edge="1" parent="1" source="3QImM_NWvGT7LAKbkqIh-7" target="3QImM_NWvGT7LAKbkqIh-10">
          <mxGeometry width="50" height="50" relative="1" as="geometry">
            <mxPoint x="326" y="288.5" as="sourcePoint" />
            <mxPoint x="396" y="220" as="targetPoint" />
          </mxGeometry>
        </mxCell>
        <mxCell id="3QImM_NWvGT7LAKbkqIh-12" value="" style="endArrow=classic;html=1;rounded=0;exitX=1;exitY=0.5;exitDx=0;exitDy=0;" edge="1" parent="1" source="3QImM_NWvGT7LAKbkqIh-7">
          <mxGeometry width="50" height="50" relative="1" as="geometry">
            <mxPoint x="326" y="288.25" as="sourcePoint" />
            <mxPoint x="406" y="289.75" as="targetPoint" />
          </mxGeometry>
        </mxCell>
        <mxCell id="3QImM_NWvGT7LAKbkqIh-13" value="&lt;h2 style=&quot;border-color: var(--border-color); color: rgb(51, 51, 51); font-family: &amp;quot;Times New Roman&amp;quot;; text-align: justify; line-height: 23.4px;&quot;&gt;&lt;span style=&quot;border-color: var(--border-color); font-size: 16px; background-color: initial;&quot;&gt;Blog&lt;/span&gt;&lt;/h2&gt;" style="rounded=1;whiteSpace=wrap;html=1;fillColor=#f5f5f5;fontColor=#333333;strokeColor=#666666;" vertex="1" parent="1">
          <mxGeometry x="416" y="260" width="110" height="51" as="geometry" />
        </mxCell>
        <mxCell id="3QImM_NWvGT7LAKbkqIh-14" value="" style="endArrow=classic;html=1;rounded=0;exitX=1;exitY=0.5;exitDx=0;exitDy=0;" edge="1" parent="1" source="3QImM_NWvGT7LAKbkqIh-7">
          <mxGeometry width="50" height="50" relative="1" as="geometry">
            <mxPoint x="326" y="290" as="sourcePoint" />
            <mxPoint x="406" y="360" as="targetPoint" />
          </mxGeometry>
        </mxCell>
        <mxCell id="3QImM_NWvGT7LAKbkqIh-16" value="&lt;h2 style=&quot;border-color: var(--border-color); color: rgb(51, 51, 51); font-family: &amp;quot;Times New Roman&amp;quot;; line-height: 23.4px;&quot;&gt;&lt;span style=&quot;font-size: 16px;&quot;&gt;Liên hệ&lt;/span&gt;&lt;/h2&gt;" style="rounded=1;whiteSpace=wrap;html=1;fillColor=#f5f5f5;fontColor=#333333;strokeColor=#666666;align=center;" vertex="1" parent="1">
          <mxGeometry x="416" y="340" width="110" height="51" as="geometry" />
        </mxCell>
        <mxCell id="3QImM_NWvGT7LAKbkqIh-17" value="&lt;h2 style=&quot;border-color: var(--border-color); color: rgb(51, 51, 51); font-family: &amp;quot;Times New Roman&amp;quot;; line-height: 23.4px;&quot;&gt;&lt;span style=&quot;font-size: 16px;&quot;&gt;Đăng nhập&lt;/span&gt;&lt;/h2&gt;" style="rounded=1;whiteSpace=wrap;html=1;fillColor=#f5f5f5;fontColor=#333333;strokeColor=#666666;align=center;" vertex="1" parent="1">
          <mxGeometry x="416" y="410" width="110" height="51" as="geometry" />
        </mxCell>
        <mxCell id="3QImM_NWvGT7LAKbkqIh-18" value="" style="endArrow=classic;html=1;rounded=0;exitX=1;exitY=0.5;exitDx=0;exitDy=0;" edge="1" parent="1" source="3QImM_NWvGT7LAKbkqIh-7">
          <mxGeometry width="50" height="50" relative="1" as="geometry">
            <mxPoint x="326" y="290" as="sourcePoint" />
            <mxPoint x="406" y="440" as="targetPoint" />
          </mxGeometry>
        </mxCell>
        <mxCell id="3QImM_NWvGT7LAKbkqIh-20" value="" style="endArrow=classic;html=1;rounded=0;exitX=1;exitY=0.5;exitDx=0;exitDy=0;" edge="1" parent="1" source="3QImM_NWvGT7LAKbkqIh-7">
          <mxGeometry width="50" height="50" relative="1" as="geometry">
            <mxPoint x="316" y="294" as="sourcePoint" />
            <mxPoint x="406" y="160" as="targetPoint" />
          </mxGeometry>
        </mxCell>
        <mxCell id="3QImM_NWvGT7LAKbkqIh-21" value="&lt;h2 style=&quot;border-color: var(--border-color); color: rgb(51, 51, 51); font-family: &amp;quot;Times New Roman&amp;quot;; line-height: 23.4px;&quot;&gt;&lt;span style=&quot;border-color: var(--border-color); font-size: 16px; background-color: initial;&quot;&gt;Chi tiết sản phẩm&lt;/span&gt;&lt;/h2&gt;" style="rounded=1;whiteSpace=wrap;html=1;fillColor=#f5f5f5;fontColor=#333333;strokeColor=#666666;align=center;" vertex="1" parent="1">
          <mxGeometry x="416" y="120" width="110" height="51" as="geometry" />
        </mxCell>
        <mxCell id="3QImM_NWvGT7LAKbkqIh-22" value="" style="endArrow=classic;html=1;rounded=0;exitX=1;exitY=0.5;exitDx=0;exitDy=0;" edge="1" parent="1">
          <mxGeometry width="50" height="50" relative="1" as="geometry">
            <mxPoint x="526" y="149" as="sourcePoint" />
            <mxPoint x="596" y="80" as="targetPoint" />
          </mxGeometry>
        </mxCell>
        <mxCell id="3QImM_NWvGT7LAKbkqIh-23" value="&lt;h2 style=&quot;border-color: var(--border-color); color: rgb(51, 51, 51); font-family: &amp;quot;Times New Roman&amp;quot;; line-height: 23.4px;&quot;&gt;&lt;span style=&quot;border-color: var(--border-color); font-size: 16px; background-color: initial;&quot;&gt;Giỏ hàng&lt;/span&gt;&lt;/h2&gt;" style="rounded=1;whiteSpace=wrap;html=1;fillColor=#f5f5f5;fontColor=#333333;strokeColor=#666666;align=center;" vertex="1" parent="1">
          <mxGeometry x="606" y="60" width="110" height="51" as="geometry" />
        </mxCell>
        <mxCell id="3QImM_NWvGT7LAKbkqIh-26" value="&lt;h2 style=&quot;border-color: var(--border-color); color: rgb(51, 51, 51); font-family: &amp;quot;Times New Roman&amp;quot;; line-height: 23.4px;&quot;&gt;&lt;span style=&quot;font-size: 16px;&quot;&gt;Đăng ký&lt;/span&gt;&lt;/h2&gt;" style="rounded=1;whiteSpace=wrap;html=1;fillColor=#f5f5f5;fontColor=#333333;strokeColor=#666666;align=center;" vertex="1" parent="1">
          <mxGeometry x="606" y="510" width="110" height="51" as="geometry" />
        </mxCell>
        <mxCell id="3QImM_NWvGT7LAKbkqIh-27" value="" style="endArrow=classic;html=1;rounded=0;exitX=1;exitY=0.5;exitDx=0;exitDy=0;" edge="1" parent="1">
          <mxGeometry width="50" height="50" relative="1" as="geometry">
            <mxPoint x="526" y="434" as="sourcePoint" />
            <mxPoint x="596" y="540" as="targetPoint" />
          </mxGeometry>
        </mxCell>
        <mxCell id="3QImM_NWvGT7LAKbkqIh-29" value="&lt;span style=&quot;font-size: 17px;&quot;&gt;Người dùng&lt;/span&gt;" style="text;html=1;align=center;verticalAlign=middle;whiteSpace=wrap;rounded=0;fontStyle=1;fontSize=17;" vertex="1" parent="1">
          <mxGeometry x="10" y="340" width="110" height="30" as="geometry" />
        </mxCell>
        <mxCell id="3QImM_NWvGT7LAKbkqIh-30" value="&lt;h2 style=&quot;border-color: var(--border-color); color: rgb(51, 51, 51); font-family: &amp;quot;Times New Roman&amp;quot;; line-height: 23.4px;&quot;&gt;&lt;span style=&quot;border-color: var(--border-color); font-size: 16px; background-color: initial;&quot;&gt;Thanh toán&lt;/span&gt;&lt;/h2&gt;" style="rounded=1;whiteSpace=wrap;html=1;fillColor=#f5f5f5;fontColor=#333333;strokeColor=#666666;align=center;" vertex="1" parent="1">
          <mxGeometry x="710" y="260" width="110" height="51" as="geometry" />
        </mxCell>
        <mxCell id="3QImM_NWvGT7LAKbkqIh-31" value="" style="endArrow=classic;html=1;rounded=0;exitX=1;exitY=0.5;exitDx=0;exitDy=0;" edge="1" parent="1">
          <mxGeometry width="50" height="50" relative="1" as="geometry">
            <mxPoint x="660" y="111" as="sourcePoint" />
            <mxPoint x="754" y="250" as="targetPoint" />
          </mxGeometry>
        </mxCell>
      </root>
    </mxGraphModel>
  </diagram>
</mxfile>
